<?xml version="1.0" encoding="UTF-8"?>
<svg id="Layer_1" xmlns="http://www.w3.org/2000/svg" version="1.1" viewBox="0 0 24 24">
  <!-- Generator: Adobe Illustrator 30.2.1, SVG Export Plug-In . SVG Version: 2.1.1 Build 1)  -->
  <defs>
    <style>
      .st0 {
        fill: #8a8a93;
      }
    </style>
  </defs>
  <path class="st0" d="M20.53,10.83l1.23-1.12h0c.22-.19.29-.5.21-.77-.19-.62-.43-1.22-.74-1.79-.13-.26-.41-.41-.7-.4l-1.67.08c-.37.02-.72-.12-.97-.38-.1-.12-.22-.22-.33-.33-.26-.25-.4-.61-.38-.97l.08-1.67c.02-.29-.14-.56-.4-.7-.57-.3-1.17-.55-1.79-.74-.27-.08-.57,0-.77.22l-1.12,1.23c-.24.27-.59.42-.96.41h-.45c-.37,0-.72-.14-.96-.41l-1.12-1.23h0c-.19-.22-.49-.3-.77-.22-.62.19-1.22.44-1.79.74-.26.13-.41.41-.4.7l.08,1.67c.02.37-.12.72-.38.97-.12.1-.22.22-.33.33-.25.26-.61.4-.97.38l-1.67-.08c-.29-.02-.56.14-.7.39-.3.57-.55,1.17-.74,1.79-.08.27,0,.57.21.77l1.23,1.12c.27.24.42.59.41.96v.45h0c.02.37-.14.72-.41.96l-1.23,1.12c-.22.19-.29.49-.21.77.19.62.44,1.22.74,1.79.13.26.41.41.7.39l1.67-.08c.37-.02.72.12.97.38.1.12.22.22.33.33.26.25.4.61.38.97l-.08,1.67c-.02.29.14.56.39.7.57.3,1.17.55,1.79.74.27.08.57,0,.77-.22l1.12-1.23h0c.24-.27.59-.42.96-.42h.49c.35,0,.69.15.92.41l1.12,1.23h0c.19.22.49.3.77.22.62-.19,1.22-.44,1.79-.74.26-.13.41-.41.39-.7l-.08-1.67c-.02-.37.12-.72.38-.97.12-.1.22-.22.33-.33.25-.26.61-.4.97-.38l1.67.08c.29.02.56-.14.7-.4.3-.57.55-1.17.74-1.79.08-.27,0-.57-.21-.77l-1.23-1.12h0c-.27-.24-.42-.59-.41-.96v-.45c-.02-.37.13-.72.41-.96h0v.02ZM12.02,17.09c-1.35,0-2.64-.53-3.59-1.49-.95-.95-1.49-2.24-1.49-3.59s.53-2.64,1.49-3.59c.95-.95,2.24-1.49,3.59-1.49s2.64.53,3.59,1.49c.95.95,1.49,2.24,1.49,3.59s-.53,2.64-1.49,3.59c-.95.95-2.24,1.49-3.59,1.49Z"/>
</svg>