<?xml version="1.0" encoding="UTF-8"?>
<svg id="Layer_1" xmlns="http://www.w3.org/2000/svg" version="1.1" viewBox="0 0 24 24">
  <!-- Generator: Adobe Illustrator 30.2.1, SVG Export Plug-In . SVG Version: 2.1.1 Build 1)  -->
  <defs>
    <style>
      .st0 {
        fill: #fff;
      }

      .st1 {
        fill: #0090d8;
      }
    </style>
  </defs>
  <circle class="st1" cx="12" cy="12" r="10"/>
  <g>
    <path class="st0" d="M16.89,10.39h0c.23-.23.23-.59,0-.81l-4.49-4.19c-.23-.23-.59-.23-.81,0h0c-.23.23-.23.59,0,.81l4.49,4.19c.23.23.59.23.81,0Z"/>
    <path class="st0" d="M12,18.78h0c-.31,0-.57-.25-.57-.57V5.79c0-.31.25-.57.57-.57h0c.31,0,.57.25.57.57v12.41c0,.31-.25.57-.57.57h0Z"/>
    <path class="st0" d="M7.11,10.39h0c-.23-.23-.23-.59,0-.81l4.49-4.19c.23-.23.59-.23.81,0h0c.23.23.23.59,0,.81l-4.49,4.19c-.23.23-.59.23-.81,0Z"/>
  </g>
</svg>