<?xml version="1.0" encoding="UTF-8"?>
<svg id="Layer_1" xmlns="http://www.w3.org/2000/svg" version="1.1" viewBox="0 0 24 24">
  <!-- Generator: Adobe Illustrator 30.2.1, SVG Export Plug-In . SVG Version: 2.1.1 Build 1)  -->
  <defs>
    <style>
      .st0 {
        fill: #fff;
      }
    </style>
  </defs>
  <path class="st0" d="M22,4.2c0-1.18-.96-2.14-2.14-2.15H4.14c-1.18,0-2.13.97-2.14,2.15v15.61c0,1.18.96,2.14,2.14,2.15h15.73c1.18,0,2.13-.97,2.14-2.15V4.19h0ZM14.67,5.21h0c1.45,0,2.63,1.18,2.63,2.63s-1.18,2.63-2.63,2.63-2.63-1.18-2.63-2.63,1.18-2.63,2.63-2.63ZM20.08,18.38c-.02.97-.8,1.74-1.77,1.76H5.67c-.96-.02-1.73-.79-1.75-1.74v-3.6c0-.14.06-.28.16-.38l3.76-3.76c.28-.28.65-.43,1.02-.43h.02c.38,0,.75.14,1.04.43l3.7,3.7,1.26-1.26c.28-.28.66-.43,1.04-.43h0c.38,0,.75.14,1.04.43l3,3c.1.1.16.23.16.38v1.91h-.04Z"/>
</svg>