<?xml version="1.0" encoding="UTF-8"?>
<svg id="Layer_1" xmlns="http://www.w3.org/2000/svg" version="1.1" viewBox="0 0 24 24">
  <!-- Generator: Adobe Illustrator 30.2.1, SVG Export Plug-In . SVG Version: 2.1.1 Build 1)  -->
  <defs>
    <style>
      .st0 {
        fill: #fff;
      }
    </style>
  </defs>
  <path class="st0" d="M12.55,6.78c0-.3-.25-.56-.56-.56s-.56.26-.56.56c0,2.57-2.09,4.66-4.66,4.66-.3,0-.56.25-.56.56s.26.56.56.56c2.57,0,4.66,2.09,4.66,4.66,0,.3.25.56.56.56s.56-.26.56-.56c0-2.57,2.09-4.66,4.66-4.66.3,0,.56-.25.56-.56s-.26-.56-.56-.56c-2.57,0-4.66-2.09-4.66-4.66Z"/>
  <path class="st0" d="M3.15,18.72c-.28-.03-.57.21-.59.52-.02.31.21.57.51.59l3.03.21h.04c.15,0,.29-.06.39-.17.11-.11.18-.27.17-.43l-.21-3.03c-.02-.31-.31-.55-.59-.51-.31.02-.53.29-.51.59l.11,1.51c-1.51-1.65-2.36-3.76-2.36-6.01,0-2.37.92-4.61,2.61-6.28,2.34-2.34,5.74-3.18,8.91-2.2.29.09.6-.08.69-.37s-.08-.6-.37-.69c-3.56-1.1-7.4-.15-10.02,2.48-1.92,1.89-2.95,4.4-2.95,7.07s.97,4.96,2.71,6.82l-1.56-.11Z"/>
  <path class="st0" d="M22,12c0-2.56-.97-4.96-2.71-6.82l1.56.11c.29.03.57-.21.59-.51.02-.31-.21-.57-.51-.59l-3.03-.22c-.16-.01-.32.04-.43.17-.11.11-.18.27-.17.43l.21,3.03c.02.29.27.51.56.51h.04c.31-.02.53-.29.51-.59l-.11-1.51c1.51,1.65,2.36,3.76,2.36,6.01,0,2.37-.92,4.61-2.61,6.28-2.34,2.34-5.74,3.18-8.91,2.2-.29-.1-.6.08-.69.37s.08.6.37.69c.98.3,1.97.45,2.96.45,2.62,0,5.15-1.02,7.06-2.93,1.9-1.89,2.94-4.4,2.94-7.07h0Z"/>
</svg>