<?xml version="1.0" encoding="UTF-8"?>
<svg id="Layer_1" xmlns="http://www.w3.org/2000/svg" version="1.1" viewBox="0 0 24 24">
  <!-- Generator: Adobe Illustrator 30.2.1, SVG Export Plug-In . SVG Version: 2.1.1 Build 1)  -->
  <defs>
    <style>
      .st0 {
        fill: #fff;
      }
    </style>
  </defs>
  <path class="st0" d="M20.77,5.19l-1.52,1.14-6.9,5.17c-.25.18-.6.18-.85,0l-6.9-5.17-1.52-1.14c.31-.18.67-.28,1.05-.28h15.59c.38,0,.74.1,1.05.28h0ZM21.7,6.27l-1.27.95-7.23,5.42c-.38.28-.83.43-1.28.43s-.9-.14-1.28-.43L3.42,7.22l-1.27-.95c-.1.24-.15.5-.15.77v9.92c0,1.17.96,2.13,2.13,2.13h15.59c1.17,0,2.13-.96,2.13-2.13V7.04c0-.27-.05-.53-.15-.77h0Z"/>
</svg>