<?xml version="1.0" encoding="UTF-8"?>
<svg id="Layer_1" xmlns="http://www.w3.org/2000/svg" version="1.1" viewBox="0 0 24 24">
  <!-- Generator: Adobe Illustrator 30.2.1, SVG Export Plug-In . SVG Version: 2.1.1 Build 1)  -->
  <defs>
    <style>
      .st0 {
        fill: #fff;
      }
    </style>
  </defs>
  <path class="st0" d="M14.31,16.48c.3.03.58-.07.8-.27.21-.2.34-.48.34-.77v-4.83c0-1.14-.93-2.07-2.07-2.07h-4.77c-.56,0-1.04.41-1.09.93-.03.3.07.58.27.8.2.21.48.34.77.34h3.37L3.68,18.85c-.2.2-.31.47-.3.76s.13.55.34.74c.4.36,1.07.32,1.48-.09l8.18-8.18v3.3c0,.56.41,1.04.93,1.09h0Z"/>
  <path class="st0" d="M22,5.79c0-2.09-1.7-3.79-3.79-3.79H5.79c-2.09,0-3.79,1.7-3.79,3.79v5.86c0,.57.47,1.03,1.03,1.03s1.03-.47,1.03-1.03v-5.86c0-.95.77-1.72,1.72-1.72h12.41c.95,0,1.72.77,1.72,1.72v12.41c0,.95-.77,1.72-1.72,1.72h-5.86c-.57,0-1.03.47-1.03,1.03s.47,1.03,1.03,1.03h5.86c2.09,0,3.79-1.7,3.79-3.79V5.79Z"/>
</svg>