<?xml version="1.0" encoding="UTF-8"?>
<svg id="Layer_1" xmlns="http://www.w3.org/2000/svg" version="1.1" viewBox="0 0 24 24">
  <!-- Generator: Adobe Illustrator 30.2.1, SVG Export Plug-In . SVG Version: 2.1.1 Build 1)  -->
  <defs>
    <style>
      .st0 {
        fill: #fff;
      }
    </style>
  </defs>
  <path class="st0" d="M9.96,9.12c-.45,0-.82.37-.82.82v7.74c0,.45.37.82.82.82s.82-.37.82-.82v-7.74c0-.45-.37-.82-.82-.82Z"/>
  <path class="st0" d="M14.04,9.12c-.45,0-.82.37-.82.82v7.74c0,.45.37.82.82.82s.82-.37.82-.82v-7.74c0-.45-.37-.82-.82-.82Z"/>
  <path class="st0" d="M21.25,6.42c0-.45-.37-.82-.82-.82h-3.63v-.95c0-1.46-1.19-2.65-2.65-2.65h-4.31c-1.46,0-2.65,1.19-2.65,2.65v.95h-3.63c-.45,0-.82.37-.82.82s.37.82.82.82h1.07v11.5c0,1.8,1.46,3.26,3.26,3.26h8.2c1.8,0,3.26-1.46,3.26-3.26V7.24h1.07c.45,0,.82-.37.82-.82h0ZM8.82,4.65c0-.56.46-1.02,1.02-1.02h4.31c.56,0,1.02.46,1.02,1.02v.95h-6.36v-.95ZM17.73,18.74c0,.9-.73,1.63-1.63,1.63H7.9c-.9,0-1.63-.73-1.63-1.63V7.24h11.47v11.5Z"/>
</svg>