<?xml version="1.0" encoding="UTF-8"?>
<svg id="Layer_1" xmlns="http://www.w3.org/2000/svg" version="1.1" viewBox="0 0 24 24">
  <!-- Generator: Adobe Illustrator 30.2.1, SVG Export Plug-In . SVG Version: 2.1.1 Build 1)  -->
  <defs>
    <style>
      .st0 {
        fill: #ffdf85;
      }

      .st1 {
        fill: #ff9d33;
      }

      .st2 {
        fill: #ffce31;
      }
    </style>
  </defs>
  <path class="st1" d="M20.01,10.08s-1,.91-2.66,1.99c-.45-2.65-1.71-5.92-4.21-9.91,0,0-.82,4.28-3.53,8.34-1.19-1.83-1.69-3.27-1.69-3.27-8.55,8.55-1.46,14.6,2.99,14.6,5.71,0,10.73-2.74,9.11-11.74Z"/>
  <path class="st2" d="M16.66,17.71c.49-1.09.84-2.48.92-4.26,0,0-.7.61-1.86,1.33-.32-1.77-1.2-3.95-2.95-6.61,0,0-.57,2.86-2.47,5.56-.83-1.22-1.19-2.18-1.19-2.18-1.42,2.24-1.97,4.01-2.01,5.39-.79-.29-1.27-.53-1.27-.53,1.34,4.01,4.12,4.88,5.36,4.88,2.22,0,4.49-.66,6.73-3.84,0,0-.49.14-1.27.26Z"/>
  <path class="st0" d="M8.53,15.88s.92,1.25,1.61.95c0,0,1.32-2.06,3.22-3.21,0,0-.39,3.15.06,3.7.6.74,2.21-.82,2.21-.82,0,1.86-2.04,4.2-3.86,4.2s-4.37-2.02-3.25-4.83Z"/>
  <path class="st1" d="M17.66,7.45c.69-1,1.15-2.02,1.15-2.02,1.15,1.89.47,3.04-.03,3.42-.68.51-1.91-.25-1.12-1.4Z"/>
  <path class="st1" d="M5.14,7.12c-.67-1.16-.75-2.6-.75-2.6-1.64,2.47-1,3.82-.45,4.23.73.55,1.98-.3,1.2-1.63Z"/>
  <path class="st1" d="M8.95,4.55c.08-.78-.24-1.58-.24-1.58,1.56,1,1.54,1.88,1.33,2.22-.27.46-1.19.26-1.09-.64Z"/>
</svg>