<?xml version="1.0" encoding="UTF-8"?>
<svg id="Layer_1" xmlns="http://www.w3.org/2000/svg" version="1.1" viewBox="0 0 24 24">
  <!-- Generator: Adobe Illustrator 30.2.1, SVG Export Plug-In . SVG Version: 2.1.1 Build 1)  -->
  <defs>
    <style>
      .st0 {
        fill: #fff;
      }
    </style>
  </defs>
  <path class="st0" d="M22,16.56v4.43c0,.09-.01.17-.03.25h0c-.09.44-.47.76-.93.76H2.93c-.49,0-.89-.37-.94-.85-.01-.06-.01-.11-.01-.17v-4.43c0-.52.43-.95.95-.95.26,0,.5.11.67.28.17.17.28.41.28.67v3.55h16.25v-3.55c0-.52.43-.95.95-.95.26,0,.5.11.67.28.16.18.27.42.27.67Z"/>
  <path class="st0" d="M17.45,12.12l-4.65,4.65s-.02.02-.03.03c-.17.17-.39.28-.61.31-.02,0-.04,0-.06,0-.04,0-.08,0-.11,0h-.11s-.04-.01-.06-.01c-.23-.03-.44-.14-.61-.31,0,0-.02-.02-.03-.03l-4.65-4.65c-.21-.21-.32-.5-.32-.78s.11-.57.32-.78c.43-.43,1.13-.43,1.56,0l2.79,2.79V3.11c0-.61.5-1.1,1.1-1.1.3,0,.58.13.78.32.2.2.32.47.32.78v10.23l2.79-2.79c.43-.43,1.13-.43,1.56,0,.41.44.41,1.14-.02,1.56Z"/>
</svg>