<?xml version="1.0" encoding="UTF-8"?>
<svg id="Layer_1" xmlns="http://www.w3.org/2000/svg" version="1.1" viewBox="0 0 24 24">
  <!-- Generator: Adobe Illustrator 30.2.1, SVG Export Plug-In . SVG Version: 2.1.1 Build 1)  -->
  <defs>
    <style>
      .st0 {
        fill: #fff;
      }
    </style>
  </defs>
  <path class="st0" d="M22,4.2c0-1.18-.96-2.13-2.13-2.14H4.13c-1.18,0-2.13.97-2.13,2.14v15.61c0,1.18.96,2.13,2.13,2.14h15.73c1.18-.01,2.13-.97,2.13-2.14V4.2h0ZM14.67,5.2h0c1.45,0,2.63,1.18,2.63,2.63s-1.18,2.63-2.63,2.63-2.63-1.18-2.63-2.63,1.18-2.63,2.63-2.63ZM20.08,18.37c-.01.97-.8,1.75-1.77,1.76H5.67c-.96-.02-1.73-.79-1.75-1.74v-3.59c0-.14.06-.28.15-.37l3.76-3.76c.28-.28.65-.42,1.02-.43h.02c.37,0,.75.14,1.04.43l3.69,3.69,1.26-1.26c.29-.29.66-.43,1.04-.43h0c.37,0,.75.14,1.04.43l3,3c.1.1.15.23.15.37v1.91h-.01Z"/>
</svg>