<?xml version="1.0" encoding="UTF-8"?>
<svg id="Layer_1" xmlns="http://www.w3.org/2000/svg" version="1.1" viewBox="0 0 24 24">
  <!-- Generator: Adobe Illustrator 30.2.1, SVG Export Plug-In . SVG Version: 2.1.1 Build 1)  -->
  <defs>
    <style>
      .st0 {
        fill: #fff;
      }
    </style>
  </defs>
  <path class="st0" d="M21,14c-.55,0-1,.45-1,1v4c0,.55-.45,1-1,1H5c-.55,0-1-.45-1-1v-4c0-.55-.45-1-1-1s-1,.45-1,1v4c0,1.66,1.34,3,3,3h14c1.66,0,3-1.34,3-3v-4c0-.27-.11-.52-.29-.71s-.44-.29-.71-.29h0Z"/>
  <path class="st0" d="M12,17c.27,0,.52-.1.71-.29s.29-.44.29-.71V5.41l2.58,2.58c.19.19.44.3.71.3.27,0,.52-.1.71-.29.19-.19.29-.45.29-.71,0-.27-.11-.52-.3-.71l-4.29-4.29s-.02-.01-.03-.02c-.39-.37-1-.36-1.38.02l-4.29,4.29c-.38.39-.38,1.02,0,1.41.39.39,1.01.39,1.41,0l2.58-2.58v10.59c0,.27.11.52.29.71s.44.29.71.29h0Z"/>
</svg>