<?xml version="1.0" encoding="UTF-8"?>
<svg id="Layer_1" xmlns="http://www.w3.org/2000/svg" version="1.1" viewBox="0 0 24 24">
  <!-- Generator: Adobe Illustrator 30.2.1, SVG Export Plug-In . SVG Version: 2.1.1 Build 1)  -->
  <defs>
    <style>
      .st0 {
        fill: #fff;
      }
    </style>
  </defs>
  <path class="st0" d="M21.98,2.27s0-.02-.01-.03c-.02-.04-.04-.08-.08-.12-.03-.03-.08-.06-.12-.08-.01,0-.02,0-.03-.01-.04-.01-.08-.02-.11-.02,0,0-.01,0-.02,0-.04,0-.08,0-.12.02L2.28,8.42c-.16.05-.27.2-.27.37s.1.32.26.38l9.07,3.49,3.49,9.07c.06.15.21.26.37.26h.01c.17,0,.32-.11.37-.27L21.98,2.53s.02-.08.02-.12c0,0,0-.02,0-.03,0-.03-.01-.07-.02-.11ZM3.59,8.83L20.11,3.32l-8.56,8.56-7.95-3.06ZM15.17,20.41l-3.06-7.95L20.68,3.89l-5.51,16.52Z"/>
</svg>