<?xml version="1.0" encoding="UTF-8"?>
<svg id="Layer_1" xmlns="http://www.w3.org/2000/svg" version="1.1" viewBox="0 0 24 24">
  <!-- Generator: Adobe Illustrator 30.2.1, SVG Export Plug-In . SVG Version: 2.1.1 Build 1)  -->
  <defs>
    <style>
      .st0 {
        fill: #fff;
      }
    </style>
  </defs>
  <path class="st0" d="M10,12.18c3.27,0,6.04,2.14,7.33,5.15.26.61.51,1.19.6,1.73.1.61,0,1.17-.38,1.73-.4.61-.96.91-1.62,1.04-.61.12-1.37.12-2.24.12h-7.38c-.87,0-1.63,0-2.24-.12-.67-.13-1.22-.43-1.62-1.04-.38-.57-.48-1.12-.38-1.73.09-.54.34-1.11.6-1.73,1.29-3.01,4.06-5.15,7.33-5.15h0Z"/>
  <path class="st0" d="M18.3,6.46c.51,0,.92.41.92.92v1.84h1.84c.51,0,.92.41.92.92s-.41.92-.92.92h-1.84v1.84c0,.51-.41.92-.92.92s-.92-.41-.92-.92v-1.84h-1.84c-.51,0-.92-.41-.92-.92s.41-.92.92-.92h1.84v-1.84c0-.51.41-.92.92-.92Z"/>
  <path class="st0" d="M10,2.03c2.44,0,4.43,1.98,4.43,4.43s-1.98,4.43-4.43,4.43-4.43-1.98-4.43-4.43,1.98-4.43,4.43-4.43Z"/>
</svg>