<?xml version="1.0" encoding="UTF-8"?>
<svg id="Layer_1" xmlns="http://www.w3.org/2000/svg" version="1.1" viewBox="0 0 24 24">
  <!-- Generator: Adobe Illustrator 30.2.1, SVG Export Plug-In . SVG Version: 2.1.1 Build 1)  -->
  <defs>
    <style>
      .st0 {
        fill: #fff;
      }
    </style>
  </defs>
  <path class="st0" d="M7.02,6.81c0,1.61.97,3.06,2.45,3.67,1.48.61,3.19.27,4.33-.86,1.14-1.14,1.48-2.85.86-4.33-.61-1.48-2.06-2.45-3.67-2.45-2.19,0-3.97,1.78-3.97,3.97h0ZM13.72,6.81c0,1.1-.66,2.09-1.68,2.51-1.02.42-2.19.19-2.97-.59-.78-.78-1.01-1.95-.59-2.97.42-1.02,1.41-1.68,2.52-1.68,1.5,0,2.72,1.22,2.72,2.72Z"/>
  <path class="st0" d="M2.63,21.16h16.74c.17,0,.32-.06.44-.18s.18-.28.18-.44c0-3.21-1.71-6.18-4.5-7.79-2.78-1.61-6.21-1.61-9,0-2.78,1.61-4.5,4.58-4.5,7.79,0,.17.07.33.18.44s.28.18.44.18h0ZM11,12.79c1.95,0,3.82.74,5.25,2.05,1.43,1.32,2.31,3.13,2.47,5.07H3.27c.16-1.94,1.04-3.75,2.47-5.07,1.43-1.32,3.3-2.05,5.25-2.05h0Z"/>
  <path class="st0" d="M21.38,9.87h-1.72v-1.72c0-.35-.28-.62-.62-.62s-.62.28-.62.62v1.72h-1.72c-.35,0-.62.28-.62.62s.28.62.62.62h1.72v1.72c0,.34.28.62.62.62s.62-.28.62-.62v-1.72h1.72c.35,0,.62-.28.62-.62s-.28-.62-.62-.62Z"/>
</svg>