<?xml version="1.0" encoding="UTF-8"?>
<svg id="Layer_1" xmlns="http://www.w3.org/2000/svg" version="1.1" viewBox="0 0 24 24">
  <!-- Generator: Adobe Illustrator 30.2.1, SVG Export Plug-In . SVG Version: 2.1.1 Build 1)  -->
  <defs>
    <style>
      .st0 {
        isolation: isolate;
      }

      .st1 {
        fill: #fff;
      }
    </style>
  </defs>
  <g class="st0">
    <path class="st1" d="M14.6,6.45v-1.19h3.09v-3.12h1.21v3.12h3.1v1.19h-3.1v3.11h-1.21v-3.11s-3.09,0-3.09,0Z"/>
  </g>
  <path class="st1" d="M2.88,4.16c.22,0,.45.08.63.26h0l10.25,9.53c-.88.5-1.51,1.2-1.92,2.04L2.26,5.68h0c-.35-.35-.35-.91,0-1.25.17-.17.4-.26.63-.26h-.01Z"/>
  <path class="st1" d="M16.36,16.37c-.18.03-.37.04-.54.11-.96.38-1.45,1.22-1.55,2.11l-2.16-2.31c.38-.86,1.01-1.58,1.93-2.06,0,0,2.32,2.15,2.32,2.15Z"/>
  <path class="st1" d="M16.82,16.66c.3,0,.59.04.86.13.54.19.99.58,1.19,1.17.16.46.05,1.01.1,1.6.05.56.35,1.15,1.13,1.66-.51.4-1.25.64-2.07.64-.92,0-1.86-.29-2.53-.86-.65-.56-.97-1.45-.92-2.27s.49-1.56,1.36-1.91c.28-.11.57-.16.87-.17h.01Z"/>
</svg>