<?xml version="1.0" encoding="UTF-8"?>
<svg id="Layer_1" xmlns="http://www.w3.org/2000/svg" version="1.1" viewBox="0 0 24 24">
  <!-- Generator: Adobe Illustrator 30.2.1, SVG Export Plug-In . SVG Version: 2.1.1 Build 1)  -->
  <defs>
    <style>
      .st0 {
        isolation: isolate;
      }

      .st1 {
        fill: #fff;
      }
    </style>
  </defs>
  <path class="st1" d="M3.26,3.75c-.32,0-.64.12-.88.36-.48.48-.48,1.27,0,1.76l9.56,10.27s0,0,0,0l2.5,2.68h.02c.05.78.34,1.56.96,2.1.73.64,1.75.93,2.72.93.97,0,1.91-.28,2.5-.86.04-.04.06-.1.05-.16,0-.06-.05-.11-.1-.14-.05-.02-.08-.04-.12-.06h0c-.82-.47-.99-.93-1.04-1.44-.05-.51.08-1.08-.12-1.66-.24-.69-.77-1.16-1.4-1.38-.31-.11-.64-.16-.97-.15L4.14,4.11c-.24-.24-.56-.36-.88-.36h0ZM3.26,4.12c.22,0,.44.08.62.26,0,0,0,0,0,0l10.06,9.35c-.86.49-1.48,1.18-1.88,2L2.65,5.61s0,0,0,0h0c-.34-.34-.34-.89,0-1.23.17-.17.39-.26.62-.26h0ZM16.49,16.1c-.18.03-.36.04-.53.11-.94.37-1.42,1.2-1.52,2.07l-2.12-2.27c.37-.84.99-1.55,1.89-2.02l2.28,2.11ZM16.94,16.38c.29,0,.58.04.84.13.53.19.97.57,1.17,1.15.16.45.05.99.1,1.57.05.55.34,1.13,1.11,1.63-.5.39-1.23.63-2.03.63-.9,0-1.83-.28-2.48-.84-.64-.55-.95-1.42-.9-2.23s.48-1.53,1.33-1.87c.27-.11.56-.16.85-.17h0Z"/>
  <g class="st0">
    <path class="st1" d="M14.76,6.36v-1.17h3.03v-3.06h1.19v3.06h3.04v1.17h-3.04v3.05h-1.19v-3.05h-3.03Z"/>
  </g>
</svg>