<?xml version="1.0" encoding="UTF-8"?>
<svg id="Layer_1" xmlns="http://www.w3.org/2000/svg" version="1.1" viewBox="0 0 24 24">
  <!-- Generator: Adobe Illustrator 30.2.1, SVG Export Plug-In . SVG Version: 2.1.1 Build 1)  -->
  <defs>
    <style>
      .st0 {
        isolation: isolate;
      }

      .st1 {
        fill: #fff;
      }
    </style>
  </defs>
  <path class="st1" d="M16.68,22c.14,0,.27-.06.36-.16l4.35-4.86c.91-1.01.83-2.52-.19-3.44l-2.22-2.02-7.8-6.99c-.45-.43-1.05-.67-1.72-.63-.65.03-1.26.31-1.69.78l-5.16,5.74c-.9.99-.84,2.5.14,3.43l8.9,8.01c.08.08.21.13.33.13h4.7ZM17.93,11.72l-7.1,7.89-7.44-6.67c-.58-.56-.62-1.47-.08-2.07l5.16-5.74c.25-.28.62-.45,1.01-.46.39-.06.75.11,1.02.38l7.43,6.69h0ZM20.55,14.22c.62.57.68,1.46.12,2.08l-4.21,4.7h-4.29l-.59-.56,7.1-7.9,1.87,1.68h0Z"/>
  <g class="st0">
    <path class="st1" d="M17,2h5.02v1.47h-5.02v-1.47Z"/>
  </g>
</svg>