<?xml version="1.0" encoding="UTF-8"?>
<svg id="Layer_1" xmlns="http://www.w3.org/2000/svg" version="1.1" viewBox="0 0 24 24">
  <!-- Generator: Adobe Illustrator 30.2.1, SVG Export Plug-In . SVG Version: 2.1.1 Build 1)  -->
  <defs>
    <style>
      .st0 {
        fill: #08a8f7;
      }
    </style>
  </defs>
  <path class="st0" d="M3.64,4.41c-.9,0-1.64.74-1.64,1.64v11.9c0,.9.74,1.64,1.64,1.64h16.72c.9,0,1.64-.74,1.64-1.64V6.05c0-.9-.74-1.64-1.64-1.64,0,0-16.72,0-16.72,0ZM3.64,5.03h16.72c.57,0,1.01.45,1.01,1.02v9.68l-3.3-3.94c-.63-.75-1.52-1.12-2.41-1.12s-1.78.38-2.41,1.12l-3.29,3.93-1.43-1.69c-.5-.59-1.21-.88-1.91-.88s-1.41.29-1.91.88l-2.09,2.47V6.05c0-.57.45-1.02,1.01-1.02h0ZM10.15,6.86c-1.19,0-2.17.98-2.17,2.17s.98,2.17,2.17,2.17,2.17-.97,2.17-2.17-.98-2.17-2.17-2.17ZM10.11,7.49h.04c.86,0,1.54.69,1.54,1.54s-.69,1.54-1.54,1.54-1.54-.69-1.54-1.54.67-1.52,1.5-1.54h0ZM15.67,11.28c.72,0,1.43.3,1.93.91l3.78,4.51v1.25c0,.57-.45,1.02-1.01,1.02h-12.3l5.67-6.78c.51-.61,1.22-.91,1.93-.91h0ZM6.62,13.77c.53,0,1.06.22,1.43.67l1.5,1.77-2.31,2.76h-3.6c-.57,0-1.01-.45-1.01-1.02v-.48l2.56-3.04c.38-.45.91-.67,1.43-.67h0Z"/>
</svg>