<?xml version="1.0" encoding="UTF-8"?>
<svg id="Layer_1" xmlns="http://www.w3.org/2000/svg" version="1.1" viewBox="0 0 892.97 76">
  <!-- Generator: Adobe Illustrator 30.2.1, SVG Export Plug-In . SVG Version: 2.1.1 Build 1)  -->
  <defs>
    <style>
      .st0 {
        fill: #2a2a2e;
      }
    </style>
  </defs>
  <path class="st0" d="M881.95,64.99l-.06.06c-3.19,3.17-7.5,4.95-12,4.95H23.02c-4.53,0-8.88-1.81-12.07-5.02h0c-3.17-3.19-4.95-7.5-4.95-12v-29.96c0-4.5,1.78-8.81,4.95-12h0c3.19-3.21,7.54-5.02,12.07-5.02h846.87c4.5,0,8.81,1.78,12,4.95l.06.06c3.21,3.19,5.02,7.54,5.02,12.07v29.84c0,4.53-1.81,8.88-5.02,12.07Z"/>
</svg>