<?xml version="1.0" encoding="UTF-8"?>
<svg id="Layer_1" xmlns="http://www.w3.org/2000/svg" version="1.1" viewBox="0 0 24 24">
  <!-- Generator: Adobe Illustrator 30.2.1, SVG Export Plug-In . SVG Version: 2.1.1 Build 1)  -->
  <defs>
    <style>
      .st0 {
        fill: #3abeff;
      }
    </style>
  </defs>
  <path class="st0" d="M22,12c0,5.52-4.48,10-10,10S2,17.52,2,12,6.48,2,12,2s10,4.48,10,10ZM16.87,17.54c.17,0,.31-.14.31-.31v-2.77c0-.71-.62-.76-1.46-.22s-1.33-.12-1.56-.97.27-1.8.81-1.8,1.07.42,1.07.42c1.22.59,1.13-.62,1.13-.62v-2.48c.01-.17-.13-.31-.29-.31h-2.5c-1.03,0-1.17-.17-1.17-.17-.63-.52.37-1.21.32-2.02s-1.44-1.28-2.43-.71c-.8.46-.56,1.16-.14,2.01.42.85-.63.88-.63.88h-3.19c-.17,0-.31.14-.31.31v2.58c0,.98.84.73,1.21.44s.76-.32.76-.32c.62-.03,1.06.41,1.06,1.35s-.44,1.57-1.07,1.57-.76-.56-1.39-.56-.59.87-.59.87v2.51c0,.17.14.31.31.31,1.53-.03,8.23,0,9.76,0h0Z"/>
</svg>