<?xml version="1.0" encoding="UTF-8"?>
<svg id="Layer_1" xmlns="http://www.w3.org/2000/svg" version="1.1" viewBox="0 0 24 24">
  <!-- Generator: Adobe Illustrator 30.2.1, SVG Export Plug-In . SVG Version: 2.1.1 Build 1)  -->
  <defs>
    <style>
      .st0 {
        fill: #8a8a93;
      }
    </style>
  </defs>
  <path class="st0" d="M12,2C6.48,2,2,6.47,2,12s4.47,10,10,10,10-4.47,10-10S17.53,2,12,2ZM16.39,16.93c-2.72,2.42-6.9,2.18-9.32-.55-2.42-2.72-2.18-6.9.55-9.32,2.72-2.42,6.9-2.18,9.32.55l.08-1.2v-.02c.02-.25.24-.44.49-.42.25.02.44.23.43.49l-.16,2.46s0,.03,0,.03c0,.03-.02.07-.03.1,0,.03-.02.04-.03.07s-.03.05-.06.08c-.02.03-.04.04-.07.06,0,0-.03.03-.04.03,0,0-.03,0-.03,0-.06.03-.11.04-.17.04h-2.29c-.25,0-.46-.21-.46-.46s.21-.46.46-.46h1.37c-1.09-1.37-2.74-2.16-4.48-2.15-3.15,0-5.7,2.57-5.7,5.72s2.57,5.7,5.72,5.7,5.7-2.57,5.7-5.72c0-.25.21-.46.46-.46s.46.21.46.46c0,1.89-.8,3.69-2.22,4.95h.03ZM13.95,14.12c.18.18.18.47,0,.65-.18.18-.47.18-.65,0l-2.46-2.46c-.08-.08-.13-.2-.13-.33v-3.08c0-.25.21-.46.46-.46s.46.21.46.46v2.89s2.33,2.33,2.33,2.33Z"/>
</svg>