<?xml version="1.0" encoding="UTF-8"?>
<svg id="Layer_1" xmlns="http://www.w3.org/2000/svg" version="1.1" viewBox="0 0 24 24">
  <!-- Generator: Adobe Illustrator 30.2.1, SVG Export Plug-In . SVG Version: 2.1.1 Build 1)  -->
  <defs>
    <style>
      .st0 {
        fill: #fff;
      }
    </style>
  </defs>
  <path class="st0" d="M6,6.29c0,.47-.38.86-.86.86h-2.29c-.47,0-.86-.38-.86-.86s.38-.86.86-.86h2.29c.47,0,.86.38.86.86ZM5.14,11.14h-2.29c-.47,0-.86.38-.86.86s.38.86.86.86h2.29c.47,0,.86-.38.86-.86s-.38-.86-.86-.86ZM5.14,16.86h-2.29c-.47,0-.86.38-.86.86s.38.86.86.86h2.29c.47,0,.86-.38.86-.86s-.38-.86-.86-.86ZM8.57,7.14h12.57c.47,0,.86-.38.86-.86s-.38-.86-.86-.86h-12.57c-.47,0-.86.38-.86.86s.38.86.86.86ZM21.14,16.86h-12.57c-.47,0-.86.38-.86.86s.38.86.86.86h12.57c.47,0,.86-.38.86-.86s-.38-.86-.86-.86ZM21.14,11.14h-12.57c-.47,0-.86.38-.86.86s.38.86.86.86h12.57c.47,0,.86-.38.86-.86s-.38-.86-.86-.86Z"/>
</svg>