<?xml version="1.0" encoding="UTF-8"?>
<svg id="Layer_1" xmlns="http://www.w3.org/2000/svg" version="1.1" viewBox="0 0 24 24">
  <!-- Generator: Adobe Illustrator 30.2.1, SVG Export Plug-In . SVG Version: 2.1.1 Build 1)  -->
  <defs>
    <style>
      .st0 {
        fill: #fff;
      }
    </style>
  </defs>
  <path class="st0" d="M11.57,2.74h.06s.06,0,.06,0h0s.06.01.06.01h.06s.06.03.06.03l.05.02.05.03.05.03.05.04.04.04.04.04.04.05.03.05.03.05.02.05.02.05v.06s.03.06.03.06v.06s0,.06,0,.06v.06s0,.06,0,.06v.06s-.03.06-.03.06l-.02.05-.02.05-.03.05-.03.05-.04.05-.04.04-.04.04-.05.04-.04.03-.37.19-.45.23h0s-.45.22-.45.22l-.46.22-.46.22-.59.27-.6.26-.6.26-.6.25-.56.22h0s-.02,0-.03.01l-.07.03-.06.02h-.06s-.06.02-.06.02h-.06s-.06,0-.06,0h-.06s-.06-.02-.06-.02l-.06-.02h0s-.06-.02-.06-.02l-.06-.03-.05-.03-.05-.03-.05-.04h0s-.04-.04-.04-.04l-.04-.04h0s-.04-.05-.04-.05l-.03-.05-.03-.06-.02-.06-.02-.06v-.06s-.02-.06-.02-.06v-.06s0-.06,0-.06v-.06s.02-.06.02-.06v-.06s.04-.06.04-.06l.02-.06.03-.05.03-.05.04-.05.04-.04.04-.04.05-.04h0s.05-.03.05-.03l.07-.04s.02,0,.02-.01h0l.46-.21.55-.25h0l.56-.25h0l.55-.25.56-.25h0l.94-.42h0s.47-.21.47-.21l.47-.21h0l.47-.21s.02,0,.02-.01h0s0,0,0,0l.07-.03.06-.02h.06s.06-.02.06-.02h.06ZM11.55,5.15l.22.31.36.51.36.52.35.52h0s.35.53.35.53l.34.53.34.53.33.54.33.54.16.26h0c-.53.14-1.04.36-1.65.63-.09.04-.19.08-.28.12-.16.07-.33.14-.51.22-.19.08-.38.17-.58.25-.63.28-1.29.57-1.81.85-.2.11-.38.21-.54.32l-.08-.22-.21-.6-.2-.61-.19-.61-.18-.61-.17-.61-.16-.62-.14-.62-.13-.62-.07-.37.5-.21h0s.6-.26.6-.26h0s.6-.27.6-.27h0s.6-.27.6-.27h0s.46-.22.46-.22h0s.46-.22.46-.22h0s.46-.23.46-.23h0s.07-.03.07-.03ZM15.87,10.54c.37,0,.73.04,1.01.11.44.11.69.28.94.52.14.13.25.26.33.38.09.13.09.2.09.23,0,.09-.16.26-.67.56-.45.26-1.03.54-1.86.94l-2.98,1.42c-1.21.52-2.41,1.04-3.18,1.37-.64.27-.89.35-1.02.35-.04,0-.07,0-.09-.02-.04-.02-.09-.06-.14-.14-.09-.14-.17-.37-.16-.68.01-.49.24-1.15.56-1.66.31-.48.71-.82,1.49-1.24.49-.26,1.13-.55,1.76-.83.19-.09.39-.17.58-.25.18-.08.35-.15.51-.22.1-.04.19-.09.28-.13.75-.33,1.26-.55,1.8-.65.25-.04.5-.06.75-.06h0ZM14.14,14.86c.81,2.19,1.56,4.25,1.95,5.49h0c-.72-1.09-1.83-2.99-3-4.99h0l1.05-.5h0ZM16.81,21.29h0,0ZM16.81,21.29s0,0,0,0c0,0,0,0,0,0h0ZM11.57,2h-.03s-.09,0-.09,0h-.03s-.09.02-.09.02h-.03s-.09.02-.09.02h-.03s-.09.03-.09.03h-.03s-.08.04-.08.04c-.01,0-.03.01-.04.02h0s0,0,0,0l-.47.21h0l-.47.21-.47.21h0s-.47.21-.47.21h0s-.47.21-.47.21h0s-.56.25-.56.25l-.56.25h0l-.56.25-.55.25h0s-.55.26-.55.26c-.03.02-.06.04-.09.06h0l-.06.04-.02.02-.07.06-.02.02-.07.06-.02.02-.06.07-.02.02-.06.07-.02.02-.05.08-.02.03-.04.08v.03s-.05.08-.05.08v.03s-.04.09-.04.09v.03s-.03.09-.03.09v.03s-.02.09-.02.09v.03s-.01.09-.01.09v.03s0,.09,0,.09v.03s0,.09,0,.09v.03s.02.09.02.09v.03s.03.09.03.09v.03s.04.09.04.09v.03s.05.08.05.08v.03s.06.08.06.08v.03s.06.08.06.08l.02.02.06.07.02.02.06.07.09.08.02.02.07.06.02.02.07.05.03.02.08.04h.03s.08.05.08.05h.03s.09.04.09.04h.03s.09.03.09.03h.03s.09.02.09.02h.03s.09.01.09.01h.03s.09,0,.09,0h.12s.03,0,.03,0h.09s.03-.02.03-.02l.09-.02h.03s.09-.03.09-.03h.03s.03-.02.03-.02h0s.02,0,.03-.01h.02s.05.23.05.23c0,0,0,0,0,0l.14.63s0,0,0,0l.15.63s0,0,0,0l.16.62s0,0,0,0l.17.62s0,0,0,0l.18.62s0,0,0,0l.19.62s0,0,0,0l.2.61s0,0,0,0l.21.61s0,0,0,0l.16.43h0c-.23.21-.43.44-.6.71-.38.59-.67,1.38-.68,2.04-.01.43.09.81.28,1.1.11.16.25.3.42.39.14.07.28.1.43.1.38,0,.81-.19,1.31-.4.64-.27,1.58-.68,2.56-1.1,1.66,2.84,3.41,5.85,3.98,6.25.03.02.14.1.29.1.05,0,.1,0,.16-.03h0s.03-.02.05-.02h0c.2-.11.22-.33.22-.38.06-.69-1.14-3.92-2.3-7.02h0l1.22-.58c.83-.39,1.43-.68,1.92-.96.42-.25.98-.6,1.03-1.12h0c.03-.28-.09-.53-.21-.72-.13-.19-.29-.37-.45-.51-.33-.31-.68-.56-1.27-.7-.34-.08-.75-.14-1.18-.14-.14,0-.28,0-.42.02l-.3-.51s0,0,0,0l-.33-.54s0,0,0,0l-.33-.54s0,0,0,0l-.34-.54s0,0,0,0l-.34-.53s0,0,0,0l-.35-.53s0,0,0,0l-.35-.53s0,0,0,0l-.36-.52s0,0,0,0l-.36-.52s0,0,0,0l-.16-.22.18-.09s.08-.05.11-.08h0s.02-.01.02-.01l.02-.02.06-.06.02-.02.06-.06.02-.02.05-.07.02-.02.05-.07.02-.02.04-.07v-.03s.05-.08.05-.08v-.03s.04-.08.04-.08v-.03s.03-.08.03-.08v-.03s.02-.09.02-.09v-.03s.02-.09.02-.09v-.03s0-.09,0-.09v-.12s0-.03,0-.03v-.09s-.01-.03-.01-.03l-.02-.09v-.03s-.03-.08-.03-.08v-.03s-.04-.08-.04-.08v-.03s-.05-.08-.05-.08v-.03s-.06-.08-.06-.08l-.02-.03-.05-.07-.02-.02-.06-.07-.02-.02-.06-.07-.02-.02-.07-.06-.02-.02-.07-.06-.02-.02-.07-.05-.03-.02-.08-.04h-.03s-.08-.05-.08-.05h-.03s-.08-.04-.08-.04h-.03s-.09-.03-.09-.03h-.03s-.09-.02-.09-.02h-.03s-.09-.01-.09-.01h-.03s-.09,0-.09,0Z"/>
</svg>