<?xml version="1.0" encoding="UTF-8"?>
<svg id="Layer_1" xmlns="http://www.w3.org/2000/svg" version="1.1" viewBox="0 0 24 24">
  <!-- Generator: Adobe Illustrator 30.2.1, SVG Export Plug-In . SVG Version: 2.1.1 Build 1)  -->
  <defs>
    <style>
      .st0 {
        fill: #fff;
      }
    </style>
  </defs>
  <path class="st0" d="M3.25,2.98c-.13,0-.25.05-.34.14-.09.09-.14.21-.14.34v11.46c0,.26.22.48.48.48h3.96c.26,0,.48-.21.48-.48v-.05c2.41.6,4.05,2.48,5,5.75.17.59.62,1.06,1.2,1.27.56.21,1.19.13,1.68-.21h0c2.08-1.41,1.42-4.2.56-6.41h2.92c.68.02,1.33-.27,1.77-.79.8-.99.31-2.11-.25-2.95.53-.72.74-1.36.64-1.95-.07-.41-.29-.79-.61-1.06.41-.75.53-1.42.36-2-.15-.49-.47-.9-.91-1.16h0c.3-.78.33-1.41.1-1.93-.27-.54-.75-.93-1.33-1.07h-.05c-1.2-.23-2.42-.35-3.64-.35-.74,0-1.49.04-2.22.13-.88.11-1.73.4-2.5.84l-1.26.71c-.32.18-.67.27-1.04.27h-.41v-.5c0-.13-.05-.25-.14-.34-.09-.09-.21-.14-.34-.14h-3.96,0ZM7.87,4.92h.25c.53,0,1.04-.14,1.5-.4l1.25-.71c.66-.38,1.4-.63,2.16-.72,1.85-.22,3.71-.15,5.54.2.31.07.57.26.72.54h0c.15.33.06.85-.26,1.55-.11.24-.01.52.23.64h0c.45.21.72.47.8.78.11.4-.04.94-.47,1.6-.14.22-.07.52.15.66.27.14.47.39.55.68h0c.06.37-.16.88-.66,1.48-.14.17-.15.41-.02.59h0c.91,1.25.75,1.76.49,2.09-.26.29-.64.45-1.02.44h-3.64c-.16,0-.31.08-.4.21-.09.13-.1.3-.04.45,1.34,3.15,1.36,5.02.06,5.91-.24.16-.55.2-.82.1-.29-.1-.52-.34-.6-.64-1.07-3.66-2.96-5.78-5.76-6.44l.02-9ZM3.72,3.94h3.02v10.5h-3.01s0-10.5,0-10.5Z"/>
</svg>