<?xml version="1.0" encoding="UTF-8"?>
<svg id="Layer_1" xmlns="http://www.w3.org/2000/svg" version="1.1" viewBox="0 0 24 24">
  <!-- Generator: Adobe Illustrator 30.2.1, SVG Export Plug-In . SVG Version: 2.1.1 Build 1)  -->
  <defs>
    <style>
      .st0 {
        fill: #fff;
      }
    </style>
  </defs>
  <path class="st0" d="M11.23,13.7h-3.79v-1.54h3.79v-3.79h1.52v3.79h3.79v1.52s-3.79.04-3.79.04v3.75h-1.52s0-3.77,0-3.77ZM20.87,6.05h-8.81c-.19,0-.36-.11-.45-.28l-1.09-2.19s-.04-.05-.06-.09c-.03-.04-.05-.09-.1-.12-.03-.03-.08-.05-.12-.08-.03-.02-.08-.05-.12-.06-.05-.02-.11-.02-.16-.03-.03,0-.06-.02-.1-.02H3.08c-.78.11-1.08.75-1.08,1.14v14.8c0,.68.55,1.21,1.21,1.21h17.58c.68,0,1.21-.55,1.21-1.21V7.2c0-.4-.31-1.07-1.1-1.15h-.05.03-.01Z"/>
</svg>