<?xml version="1.0" encoding="UTF-8"?>
<svg id="Layer_1" xmlns="http://www.w3.org/2000/svg" version="1.1" viewBox="0 0 24 24">
  <!-- Generator: Adobe Illustrator 30.2.1, SVG Export Plug-In . SVG Version: 2.1.1 Build 1)  -->
  <defs>
    <style>
      .st0 {
        fill: #fff;
      }
    </style>
  </defs>
  <path class="st0" d="M17.18,2H6.82c-1.66,0-3,1.34-3,3v14c0,1.66,1.34,3,3,3h10.36c1.66,0,3-1.34,3-3V5c0-1.66-1.34-3-3-3ZM16.2,12.01s0,0,0,0c0,.35-.19.66-.5.82l-5.31,2.79c-.14.07-.28.11-.43.11-.16,0-.33-.04-.48-.13-.28-.17-.45-.47-.45-.79v-5.59c0-.33.17-.62.45-.79.28-.17.62-.18.91-.03l5.31,2.8c.31.16.5.47.5.82,0,0,0,0,0,0h0Z"/>
</svg>