<?xml version="1.0" encoding="UTF-8"?>
<svg id="Layer_1" xmlns="http://www.w3.org/2000/svg" version="1.1" viewBox="0 0 24 24">
  <!-- Generator: Adobe Illustrator 30.2.1, SVG Export Plug-In . SVG Version: 2.1.1 Build 1)  -->
  <defs>
    <style>
      .st0 {
        fill: #fff;
      }
    </style>
  </defs>
  <path class="st0" d="M19.87,2H7.68c-1.11,0-2.01.9-2.01,2.01v1.79h-1.54c-1.11,0-2,.9-2.01,2.01v12.2c0,1.11.9,2,2.01,2.01h12.2c1.11,0,2.01-.9,2.01-2.01v-1.79h1.55c1.11,0,2-.9,2.01-2.01V4.01c0-1.11-.9-2.01-2.01-2.01ZM17.08,19.99c0,.42-.34.76-.76.76H4.13c-.42,0-.76-.34-.76-.76V7.8c0-.42.34-.76.76-.76h12.2c.42,0,.76.34.76.76v12.2ZM20.63,16.2c0,.42-.34.76-.76.76h-1.54V7.8c0-1.11-.9-2-2.01-2.01H6.92v-1.79c0-.42.34-.76.76-.76h12.2c.42,0,.76.34.76.76v12.2Z"/>
</svg>