<?xml version="1.0" encoding="UTF-8"?>
<svg id="Layer_1" xmlns="http://www.w3.org/2000/svg" version="1.1" viewBox="0 0 24 24">
  <!-- Generator: Adobe Illustrator 30.2.1, SVG Export Plug-In . SVG Version: 2.1.1 Build 1)  -->
  <defs>
    <style>
      .st0 {
        fill: #fff;
      }
    </style>
  </defs>
  <path class="st0" d="M17.01,22H6.99c-1.37,0-2.48-1.11-2.48-2.48V4.48c0-1.37,1.11-2.48,2.48-2.48h10.03c1.37,0,2.48,1.11,2.48,2.48v15.03c0,1.37-1.11,2.48-2.48,2.48ZM6.97,3.03c-.8,0-1.46.66-1.46,1.46v15.03c0,.8.66,1.46,1.46,1.46h10.03c.8,0,1.46-.66,1.46-1.46V4.48c0-.8-.66-1.46-1.46-1.46H6.97Z"/>
</svg>