<?xml version="1.0" encoding="UTF-8"?>
<svg id="Layer_1" xmlns="http://www.w3.org/2000/svg" version="1.1" viewBox="0 0 24 24">
  <!-- Generator: Adobe Illustrator 30.2.1, SVG Export Plug-In . SVG Version: 2.1.1 Build 1)  -->
  <defs>
    <style>
      .st0 {
        fill: #fff;
      }
    </style>
  </defs>
  <path class="st0" d="M20.57,17.76H3.43c-.79,0-1.43-.64-1.43-1.43V7.68c0-.79.64-1.43,1.43-1.43h17.14c.79,0,1.43.64,1.43,1.43v8.65c0,.79-.64,1.43-1.43,1.43ZM3.43,6.84c-.46,0-.84.38-.84.84v8.65c0,.46.38.84.84.84h17.14c.46,0,.84-.38.84-.84V7.68c0-.46-.38-.84-.84-.84H3.43Z"/>
</svg>