<?xml version="1.0" encoding="UTF-8"?>
<svg id="Layer_1" xmlns="http://www.w3.org/2000/svg" version="1.1" viewBox="0 0 24 24">
  <!-- Generator: Adobe Illustrator 30.2.1, SVG Export Plug-In . SVG Version: 2.1.1 Build 1)  -->
  <defs>
    <style>
      .st0 {
        fill: #fff;
      }
    </style>
  </defs>
  <path class="st0" d="M19.27,2s-.08.01-.12.01c-.04,0-.08-.01-.12-.01H4.98s-.08.01-.12.01c-.04,0-.08-.01-.12-.01-.91,0-1.65.74-1.65,1.65v2.64c0,.91.74,1.65,1.65,1.65s1.65-.74,1.65-1.65v-.99h4.01v13.41h-1.66c-.91,0-1.65.74-1.65,1.65s.74,1.65,1.65,1.65h6.62c.91,0,1.65-.74,1.65-1.65s-.74-1.65-1.65-1.65h-1.66V5.3h3.94v.99c0,.91.74,1.65,1.65,1.65s1.65-.74,1.65-1.65v-2.64c0-.91-.74-1.65-1.65-1.65Z"/>
</svg>