<?xml version="1.0" encoding="UTF-8"?>
<svg id="Layer_1" xmlns="http://www.w3.org/2000/svg" version="1.1" viewBox="0 0 24 24">
  <!-- Generator: Adobe Illustrator 30.2.1, SVG Export Plug-In . SVG Version: 2.1.1 Build 1)  -->
  <defs>
    <style>
      .st0 {
        fill: #fff;
      }
    </style>
  </defs>
  <path class="st0" d="M6.24,20.57V3.43c0-.79.64-1.43,1.43-1.43h8.65c.79,0,1.43.64,1.43,1.43v17.14c0,.79-.64,1.43-1.43,1.43H7.68c-.79,0-1.43-.64-1.43-1.43ZM17.16,3.43c0-.46-.38-.84-.84-.84H7.68c-.46,0-.84.38-.84.84v17.14c0,.46.38.84.84.84h8.65c.46,0,.84-.38.84-.84V3.43Z"/>
</svg>