<?xml version="1.0" encoding="UTF-8"?>
<svg id="Layer_1" xmlns="http://www.w3.org/2000/svg" version="1.1" viewBox="0 0 1000 300">
  <!-- Generator: Adobe Illustrator 30.2.1, SVG Export Plug-In . SVG Version: 2.1.1 Build 1)  -->
  <defs>
    <style>
      .st0 {
        fill: #fff;
      }
    </style>
  </defs>
  <path class="st0" d="M106.58,229.87c-47.33,0-68.63-23.66-68.63-54.43l2.37-2.37h28.4l2.37,2.37c0,16.57,9.47,26.03,37.86,26.03,21.3,0,33.13-7.1,33.13-21.3,0-16.57-9.47-21.3-42.6-26.03-33.13-4.73-59.16-16.56-59.16-49.7,0-23.66,18.93-44.96,63.89-44.96s63.89,21.3,63.89,49.7l-2.37,2.37h-28.4l-2.37-2.37c0-14.2-7.1-21.3-33.13-21.3-21.3,0-28.4,7.1-28.4,16.57,0,14.2,9.47,18.93,42.6,23.66,33.13,4.73,59.16,18.93,59.16,52.06,0,26.03-18.93,49.7-68.63,49.7Z"/>
  <path class="st0" d="M278.6,229.87c-49.7,0-80.46-35.5-80.46-85.19s30.76-85.19,80.46-85.19,80.46,35.5,80.46,85.19-30.76,85.19-80.46,85.19ZM278.6,87.88c-30.76,0-47.33,23.66-47.33,56.8s16.56,56.8,47.33,56.8,47.33-23.67,47.33-56.8-16.57-56.8-47.33-56.8Z"/>
  <path class="st0" d="M500.31,227.51h-106.49l-2.37-2.37V64.22l2.37-2.37h28.4l2.37,2.37v132.52l2.37,2.37h73.36l2.37,2.37v23.66l-2.37,2.37Z"/>
  <path class="st0" d="M592.5,225.14l-2.37,2.37h-30.76l-2.37-2.37-52.06-137.26v-23.66l2.37-2.37h21.3l2.37,2.37,42.6,115.96h2.37l42.6-115.96,2.37-2.37h21.3l2.37,2.37v23.66l-52.06,137.26Z"/>
  <path class="st0" d="M788.19,227.51h-111.22l-2.37-2.37V64.22l2.37-2.37h111.22l2.37,2.37v23.66l-2.37,2.37h-78.09l-2.37,2.37v33.13l2.37,2.37h73.36l2.37,2.37v23.66l-2.37,2.37h-73.36l-2.37,2.37v37.86l2.37,2.37h78.09l2.37,2.37v23.66l-2.37,2.37Z"/>
  <path class="st0" d="M882.11,227.51h-52.06l-2.37-2.37V64.22l2.37-2.37h52.06c59.16,0,80.46,30.76,80.46,82.83s-21.3,82.83-80.46,82.83ZM884.48,90.25h-21.3l-2.37,2.37v104.13l2.37,2.37h21.3c33.13,0,44.96-16.57,44.96-54.43s-11.83-54.43-44.96-54.43Z"/>
</svg>