<?xml version="1.0" encoding="UTF-8"?>
<svg id="Layer_1" xmlns="http://www.w3.org/2000/svg" version="1.1" viewBox="0 0 24 24">
  <!-- Generator: Adobe Illustrator 30.2.1, SVG Export Plug-In . SVG Version: 2.1.1 Build 1)  -->
  <defs>
    <style>
      .st0 {
        fill: #fff;
        fill-rule: evenodd;
      }
    </style>
  </defs>
  <path class="st0" d="M14.84,19.63c2.05-.76,3.7-2.32,4.59-4.31-1.03.18-2.16.32-3.37.43-.26,1.52-.66,2.82-1.21,3.87M12,22c5.52,0,10-4.48,10-10S17.52,2,12,2,2,6.48,2,12s4.48,10,10,10M12.6,20.1c-.4.03-.8.03-1.2,0h-.02c-.46-.48-.81-1.04-1.05-1.65-.32-.74-.58-1.61-.79-2.6,1.63.08,3.27.08,4.9,0-.21,1-.47,1.87-.79,2.6-.24.61-.6,1.17-1.05,1.64h0ZM16.28,14.15c1.38-.12,2.61-.3,3.69-.54.2-1.07.2-2.16,0-3.22-1.08-.23-2.31-.4-3.69-.54.14,1.43.14,2.87,0,4.3M14.69,9.72c.16,1.51.16,3.04,0,4.55-1.79.1-3.58.1-5.38,0-.16-1.51-.16-3.04,0-4.55,1.79-.1,3.58-.1,5.38,0M16.06,8.26c1.21.11,2.33.25,3.36.43-.89-1.99-2.54-3.54-4.59-4.3.54,1.05.95,2.34,1.22,3.87M12.6,3.87v.02c.35.31.7.85,1.06,1.64.32.74.58,1.61.79,2.6-1.63-.08-3.27-.08-4.9,0,.21-1,.47-1.87.79-2.6.24-.61.6-1.18,1.06-1.65.4-.03.8-.03,1.2,0M9.16,4.39c-2.04.76-3.7,2.31-4.59,4.3,1.12-.19,2.24-.34,3.37-.43.26-1.53.66-2.82,1.21-3.87M7.72,9.85c-1.38.13-2.61.31-3.69.54-.2,1.07-.2,2.16,0,3.22,1.08.23,2.31.4,3.69.54-.14-1.43-.14-2.87,0-4.3M7.94,15.74c-1.21-.1-2.33-.24-3.36-.43.89,1.99,2.54,3.54,4.59,4.3-.54-1.06-.95-2.35-1.23-3.88"/>
</svg>