<?xml version="1.0" encoding="UTF-8"?>
<svg id="Layer_1" xmlns="http://www.w3.org/2000/svg" version="1.1" viewBox="0 0 24 24">
  <!-- Generator: Adobe Illustrator 30.2.1, SVG Export Plug-In . SVG Version: 2.1.1 Build 1)  -->
  <defs>
    <style>
      .st0 {
        fill: #fff;
      }
    </style>
  </defs>
  <path class="st0" d="M2.98,2.22c.24,0,.5.09.7.29h0l11.32,10.53c-.97.55-1.67,1.33-2.12,2.25L2.29,3.9h0c-.39-.39-.39-1.01,0-1.38.19-.19.44-.29.7-.29h-.01,0Z"/>
  <path class="st0" d="M17.87,15.71c-.2.03-.41.04-.6.12-1.06.42-1.6,1.35-1.71,2.33l-2.39-2.55c.42-.95,1.12-1.75,2.13-2.28,0,0,2.56,2.38,2.56,2.38Z"/>
  <path class="st0" d="M18.38,16.03c.33,0,.65.04.95.14.6.21,1.09.64,1.31,1.29.18.51.06,1.12.11,1.77.06.62.39,1.27,1.25,1.83-.56.44-1.38.71-2.29.71-1.02,0-2.05-.32-2.8-.95-.72-.62-1.07-1.6-1.02-2.51s.54-1.72,1.5-2.11c.31-.12.63-.18.96-.19h.01,0Z"/>
</svg>