<?xml version="1.0" encoding="UTF-8"?>
<svg id="Layer_1" xmlns="http://www.w3.org/2000/svg" version="1.1" viewBox="0 0 24 24">
  <!-- Generator: Adobe Illustrator 30.2.1, SVG Export Plug-In . SVG Version: 2.1.1 Build 1)  -->
  <defs>
    <style>
      .st0 {
        fill: #fff;
      }
    </style>
  </defs>
  <path class="st0" d="M6.8,2.11c-1.27,0-2.33.87-2.65,2.04h-1.43c-.39,0-.72.32-.72.71,0,0,0,0,0,0,0,.39.32.71.72.71h1.43c.32,1.17,1.39,2.05,2.66,2.05s2.32-.86,2.65-2.01l11.84-.03c.39,0,.71-.32.71-.72h0c0-.39-.32-.71-.71-.71l-11.82.03c-.31-1.19-1.39-2.08-2.66-2.08ZM6.8,3.54c.74,0,1.33.59,1.33,1.33s-.59,1.33-1.33,1.33-1.33-.59-1.33-1.33.59-1.33,1.33-1.33ZM14.43,9.01c-1.29,0-2.37.89-2.69,2.08H2.72c-.39,0-.72.32-.72.71,0,0,0,0,0,0,0,.39.32.71.71.72,0,0,0,0,0,0h9.02c.32,1.19,1.4,2.08,2.69,2.08s2.37-.89,2.69-2.08h4.17c.39,0,.71-.32.71-.72h0c0-.39-.32-.71-.71-.71h-4.17c-.32-1.19-1.4-2.08-2.69-2.08ZM14.43,10.44c.76,0,1.37.6,1.37,1.36s-.6,1.37-1.37,1.37-1.37-.6-1.37-1.37.6-1.36,1.37-1.36ZM8.88,16.3c-1.29,0-2.37.89-2.69,2.08h-3.47c-.39,0-.72.32-.72.71,0,0,0,0,0,0,0,.39.32.71.72.71h3.47c.32,1.19,1.4,2.08,2.69,2.08s2.37-.89,2.69-2.08h9.72c.39,0,.71-.32.71-.71,0-.39-.32-.72-.71-.72h0s-9.72,0-9.72,0c-.32-1.19-1.4-2.08-2.69-2.08ZM8.88,17.73c.76,0,1.37.6,1.37,1.37s-.6,1.37-1.37,1.37-1.37-.6-1.37-1.37.6-1.37,1.37-1.37Z"/>
</svg>