<?xml version="1.0" encoding="UTF-8"?>
<svg id="Layer_1" xmlns="http://www.w3.org/2000/svg" version="1.1" viewBox="0 0 24 24">
  <!-- Generator: Adobe Illustrator 30.2.1, SVG Export Plug-In . SVG Version: 2.1.1 Build 1)  -->
  <defs>
    <style>
      .st0 {
        fill: #fff;
      }
    </style>
  </defs>
  <path class="st0" d="M3.25,21.02h3.96c.13,0,.25-.05.34-.14.09-.09.14-.21.14-.34v-.5h.41c.36,0,.72.09,1.04.27l1.26.71c.77.44,1.62.73,2.5.84.74.09,1.48.13,2.22.13,1.22,0,2.44-.12,3.64-.35h.05c.58-.14,1.07-.53,1.33-1.07.22-.52.19-1.15-.1-1.93h0c.44-.26.76-.67.91-1.16.17-.58.04-1.25-.36-2,.32-.27.54-.64.61-1.06.09-.59-.12-1.23-.64-1.95.56-.84,1.05-1.96.25-2.95-.44-.52-1.09-.81-1.77-.79h-2.92c.87-2.22,1.52-5-.56-6.41h0c-.49-.34-1.12-.42-1.68-.21-.58.21-1.03.68-1.2,1.27-.95,3.27-2.59,5.15-5,5.75v-.05c0-.26-.22-.48-.48-.48h-3.96c-.26,0-.48.21-.48.48v11.46c0,.13.05.25.14.34.09.09.21.14.34.14h0ZM7.85,10.08c2.8-.66,4.69-2.77,5.76-6.44.09-.3.31-.54.6-.64.27-.1.58-.06.82.1,1.3.89,1.28,2.76-.06,5.91-.06.15-.05.32.04.45.09.13.24.21.4.21h3.64c.39-.01.77.15,1.02.44.27.33.42.84-.49,2.09h0c-.13.18-.12.42.02.59.5.6.72,1.11.66,1.48h0c-.07.3-.27.55-.55.68-.22.14-.29.44-.15.66.43.67.59,1.2.47,1.6-.09.31-.35.56-.8.78h0c-.24.11-.34.4-.23.64.32.69.41,1.22.26,1.55h0c-.15.27-.41.47-.72.53-1.82.35-3.69.42-5.54.2-.76-.1-1.49-.34-2.16-.72l-1.25-.71c-.46-.26-.98-.39-1.5-.4h-.25l-.02-9ZM3.72,9.56h3.01v10.51h-3.02v-10.51Z"/>
</svg>