<?xml version="1.0" encoding="UTF-8"?>
<svg id="Layer_1" xmlns="http://www.w3.org/2000/svg" version="1.1" viewBox="0 0 24 24">
  <!-- Generator: Adobe Illustrator 30.2.1, SVG Export Plug-In . SVG Version: 2.1.1 Build 1)  -->
  <defs>
    <style>
      .st0 {
        fill: #fff;
      }
    </style>
  </defs>
  <path class="st0" d="M14.89,8.07c.28-.28.75-.28,1.03,0s.28.75,0,1.03L3.24,21.79c-.28.28-.75.28-1.03,0s-.28-.75,0-1.03l12.68-12.68Z"/>
  <path class="st0" d="M14.44,14.68c.4,0,.73.33.73.73v.97c0,.4-.33.73-.73.73s-.73-.33-.73-.73v-.97c0-.4.33-.73.73-.73Z"/>
  <path class="st0" d="M18.07,13.18c.28-.28.75-.28,1.03,0l.69.69c.28.28.28.75,0,1.03s-.75.28-1.03,0l-.69-.69c-.28-.28-.28-.75,0-1.03Z"/>
  <path class="st0" d="M8.59,8.82c.4,0,.73.33.73.73s-.33.73-.73.73h-.97c-.4,0-.73-.33-.73-.73s.33-.73.73-.73h.97Z"/>
  <path class="st0" d="M21.27,8.82c.4,0,.73.33.73.73s-.33.73-.73.73h-.97c-.4,0-.73-.33-.73-.73s.33-.73.73-.73h.97Z"/>
  <path class="st0" d="M9.09,4.21c.28-.28.75-.28,1.03,0l.69.69c.28.28.28.75,0,1.03s-.75.28-1.03,0l-.69-.69c-.28-.28-.28-.75,0-1.03Z"/>
  <path class="st0" d="M18.75,4.21c.28-.28.75-.28,1.03,0s.28.75,0,1.03l-.69.69c-.28.28-.75.28-1.03,0-.28-.28-.28-.75,0-1.03l.69-.69Z"/>
  <path class="st0" d="M14.44,2c.4,0,.73.33.73.73v.97c0,.4-.33.73-.73.73s-.73-.33-.73-.73v-.97c0-.4.33-.73.73-.73Z"/>
</svg>