<?xml version="1.0" encoding="UTF-8"?>
<svg id="Layer_1" xmlns="http://www.w3.org/2000/svg" version="1.1" viewBox="0 0 24 24">
  <!-- Generator: Adobe Illustrator 30.2.1, SVG Export Plug-In . SVG Version: 2.1.1 Build 1)  -->
  <defs>
    <style>
      .st0 {
        fill: #fff;
      }
    </style>
  </defs>
  <path class="st0" d="M15.33,2.05c.68-.09,1.35-.07,1.96.15.63.23,1.14.65,1.49,1.28.39.69.38,1.42.15,2.11-.23.66-.66,1.29-1.19,1.88-1.04,1.18-2.58,2.41-4.02,3.55-1.48,1.18-2.86,2.28-3.71,3.27-.43.5-.66.9-.74,1.21-.07.26-.03.45.13.65.21.25.44.36.71.39.29.03.67-.03,1.15-.21.97-.37,2.11-1.14,3.3-2.01,1.15-.85,2.36-1.8,3.39-2.41.51-.3,1.04-.56,1.55-.66.53-.1,1.14-.05,1.61.42.39.39.55.86.54,1.36-.02.46-.19.91-.4,1.3-.41.78-1.12,1.62-1.75,2.38-.67.8-1.26,1.54-1.61,2.19-.35.67-.3,1-.14,1.21.23.31.44.37.63.37.24,0,.54-.1.88-.32.33-.21.64-.47.87-.7.12-.12.23-.25.35-.37.27-.32.74-.36,1.06-.1.35.29.34.78.06,1.11-.45.52-.97.98-1.55,1.34-.45.28-1.04.54-1.67.54-.69,0-1.34-.31-1.84-.98-.7-.93-.42-1.99,0-2.81.43-.83,1.15-1.7,1.78-2.46.67-.81,1.26-1.51,1.58-2.12.16-.3.22-.51.22-.64,0-.23-.15-.29-.34-.25-.25.05-.61.2-1.08.48-2.36,1.4-4.31,3.55-6.92,4.54-.6.23-1.24.37-1.86.29-.65-.07-1.23-.37-1.69-.93-.5-.61-.61-1.31-.43-2,.17-.64.58-1.25,1.06-1.81,2.25-2.62,5.46-4.23,7.74-6.83.46-.53.76-.99.89-1.38.12-.36.1-.63-.04-.88-.17-.31-.4-.49-.69-.6-.3-.11-.71-.15-1.24-.07-1.07.15-2.42.7-3.91,1.54-2.96,1.66-6.18,4.27-8.16,6.19-.3.29-.78.28-1.07-.02-.29-.3-.28-.78.02-1.07,2.04-1.98,5.37-4.68,8.47-6.43,1.54-.86,3.1-1.53,4.44-1.72h0Z"/>
</svg>