<?xml version="1.0" encoding="UTF-8"?>
<svg id="Layer_1" xmlns="http://www.w3.org/2000/svg" version="1.1" viewBox="0 0 24 24">
  <!-- Generator: Adobe Illustrator 30.2.1, SVG Export Plug-In . SVG Version: 2.1.1 Build 1)  -->
  <defs>
    <style>
      .st0 {
        fill: #fff;
      }
    </style>
  </defs>
  <path class="st0" d="M11.45,17.23c0,.31.25.56.56.56s.56-.25.56-.56c0-2.57,2.09-4.67,4.67-4.67.31,0,.56-.25.56-.56s-.25-.56-.56-.56c-2.57,0-4.67-2.09-4.67-4.67,0-.31-.25-.56-.56-.56s-.56.25-.56.56c0,2.57-2.09,4.67-4.67,4.67-.31,0-.56.25-.56.56s.25.56.56.56c2.57,0,4.67,2.09,4.67,4.67ZM12.01,9.25c.57,1.2,1.55,2.17,2.75,2.75-1.2.57-2.17,1.55-2.75,2.75-.57-1.2-1.55-2.17-2.75-2.75,1.2-.57,2.18-1.55,2.75-2.75Z"/>
  <path class="st0" d="M20.86,5.28c.29.03.57-.21.59-.51.02-.31-.21-.57-.51-.59l-3.03-.22c-.16-.01-.32.04-.43.17-.11.11-.18.27-.17.43l.21,3.03c.02.29.27.51.56.51h.04c.31-.02.53-.29.51-.59l-.11-1.52c1.52,1.65,2.36,3.77,2.36,6.02,0,2.37-.92,4.61-2.61,6.28-2.34,2.34-5.75,3.19-8.91,2.21-.29-.1-.6.08-.69.37s.08.6.37.69c.98.3,1.97.45,2.96.45,2.62,0,5.16-1.02,7.06-2.93s2.93-4.4,2.93-7.07-.97-4.97-2.71-6.83l1.57.11Z"/>
  <path class="st0" d="M14.97,2.44c-3.57-1.1-7.41-.15-10.03,2.48-1.91,1.89-2.94,4.4-2.94,7.07s.97,4.97,2.71,6.83l-1.56-.11c-.28-.03-.57.21-.59.52-.02.31.21.57.51.59l3.03.21h.04c.15,0,.29-.06.39-.17.11-.11.18-.27.17-.43l-.21-3.03c-.02-.31-.31-.55-.59-.51-.31.02-.53.29-.51.59l.11,1.52c-1.52-1.65-2.36-3.77-2.36-6.02,0-2.37.92-4.61,2.61-6.28,2.34-2.34,5.75-3.19,8.91-2.21.29.09.6-.08.69-.37s-.09-.6-.38-.69h0Z"/>
</svg>