<?xml version="1.0" encoding="UTF-8"?>
<svg id="Layer_1" xmlns="http://www.w3.org/2000/svg" version="1.1" viewBox="0 0 24 24">
  <!-- Generator: Adobe Illustrator 30.2.1, SVG Export Plug-In . SVG Version: 2.1.1 Build 1)  -->
  <defs>
    <style>
      .st0 {
        fill: #fff;
      }
    </style>
  </defs>
  <path class="st0" d="M21.74,17.12c.27-2.69.34-5.4.17-8.09h-9.37v12.98c1.52-.01,3.06-.09,4.58-.25,1.17-.14,2.27-.67,3.12-1.51.84-.84,1.37-1.94,1.51-3.12h-.02Z"/>
  <path class="st0" d="M21.74,6.88c-.14-1.17-.66-2.29-1.51-3.12-.84-.84-1.94-1.37-3.12-1.51-1.51-.15-3.05-.24-4.58-.25v5.96h9.29c-.02-.36-.04-.71-.09-1.07h.01Z"/>
  <path class="st0" d="M6.9,21.74c1.52.16,3.05.24,4.58.25V2c-1.52.01-3.06.09-4.58.25-1.17.15-2.27.69-3.11,1.52s-1.37,1.94-1.52,3.11c-.35,3.4-.35,6.82,0,10.23.15,1.17.69,2.27,1.52,3.11s1.92,1.37,3.11,1.52h0Z"/>
</svg>